<svg width="211" height="46" viewBox="0 0 211 46" fill="none" xmlns="http://www.w3.org/2000/svg">
<path d="M63.6529 16.3611H83.745V19.7565H75.8343V38.8971H71.4979V19.7565H63.6198L63.6529 16.3611ZM82.8847 22.581H86.5924V25.736H86.6582C86.791 25.2853 87.0231 24.8646 87.3533 24.444C87.6847 24.0232 88.0819 23.6327 88.5784 23.3021C89.0415 22.9415 89.5715 22.6711 90.1673 22.4608C90.7296 22.2505 91.3254 22.1303 91.9212 22.1303C92.3854 22.1303 92.7157 22.1603 92.8819 22.1603C93.0471 22.1903 93.2457 22.2204 93.4108 22.2204V25.6759C93.1464 25.6158 92.8484 25.5857 92.5505 25.5558C92.2526 25.5257 91.9882 25.4956 91.6903 25.4956C91.0275 25.4956 90.3994 25.6158 89.8035 25.8562C89.2077 26.0966 88.7101 26.4572 88.2471 26.9079C87.8164 27.3887 87.4527 27.9595 87.1882 28.6507C86.9227 29.3417 86.791 30.1531 86.791 31.0545V38.8069H82.8187L82.8847 22.581ZM111.65 38.8971H107.711V36.6133H107.645C107.148 37.4547 106.421 38.0857 105.46 38.5965C104.5 39.1073 103.507 39.3478 102.514 39.3478C100.163 39.3478 98.4429 38.8369 97.3829 37.7552C96.324 36.7035 95.7941 35.0809 95.7941 32.9475V22.581H99.7661V32.5869C99.7661 34.0293 100.064 35.0508 100.693 35.6218C101.289 36.2228 102.151 36.5232 103.242 36.5232C104.07 36.5232 104.765 36.4031 105.328 36.1626C105.891 35.9223 106.354 35.6218 106.685 35.2311C107.049 34.8406 107.281 34.3598 107.446 33.8189C107.612 33.2781 107.678 32.6771 107.678 32.0461V22.581H111.65V38.8971ZM118.37 33.6686C118.502 34.7203 118.933 35.4415 119.694 35.8922C120.455 36.3129 121.382 36.5232 122.442 36.5232C122.805 36.5232 123.236 36.4932 123.699 36.433C124.162 36.373 124.626 36.2828 125.024 36.1326C125.453 35.9823 125.784 35.7721 126.049 35.4716C126.314 35.1711 126.446 34.8105 126.414 34.3598C126.38 33.9091 126.215 33.5184 125.85 33.2179C125.487 32.9175 125.056 32.7071 124.527 32.4968C123.997 32.3165 123.368 32.1663 122.673 32.0461C121.978 31.9258 121.282 31.7756 120.555 31.6254C119.826 31.4751 119.098 31.2949 118.403 31.0846C117.708 30.8742 117.112 30.6038 116.549 30.2132C116.019 29.8526 115.556 29.4019 115.258 28.8309C114.927 28.26 114.762 27.5989 114.762 26.7577C114.762 25.8562 114.993 25.135 115.489 24.5341C115.954 23.9331 116.582 23.4523 117.31 23.0917C118.039 22.7312 118.866 22.4608 119.759 22.3105C120.653 22.1603 121.514 22.1002 122.309 22.1002C123.236 22.1002 124.13 22.1903 124.957 22.3706C125.784 22.5509 126.579 22.8213 127.241 23.242C127.936 23.6327 128.499 24.1735 128.929 24.8045C129.393 25.4355 129.657 26.2167 129.79 27.1182H125.652C125.453 26.2468 125.024 25.6759 124.361 25.3755C123.666 25.075 122.905 24.9247 122.011 24.9247C121.747 24.9247 121.382 24.9547 121.018 24.9848C120.621 25.0449 120.289 25.105 119.926 25.2252C119.594 25.3454 119.296 25.5257 119.064 25.736C118.833 25.9463 118.701 26.2468 118.701 26.6074C118.701 27.0581 118.866 27.3887 119.197 27.6591C119.528 27.9295 119.959 28.1399 120.521 28.3502C121.051 28.5304 121.68 28.6807 122.375 28.8009C123.07 28.9211 123.798 29.0713 124.527 29.2216C125.254 29.3718 125.95 29.5521 126.645 29.7624C127.34 29.9728 127.969 30.2432 128.499 30.6338C129.028 30.9944 129.492 31.4452 129.822 31.986C130.154 32.5269 130.319 33.2179 130.319 33.9992C130.319 34.9607 130.088 35.7721 129.591 36.4631C129.095 37.1242 128.466 37.6951 127.705 38.1158C126.943 38.5365 126.049 38.8369 125.123 39.0473C124.162 39.2275 123.236 39.3478 122.309 39.3478C121.183 39.3478 120.124 39.2275 119.165 38.9872C118.204 38.7468 117.344 38.3862 116.649 37.9355C115.954 37.4547 115.39 36.8839 114.993 36.1626C114.596 35.4716 114.365 34.6302 114.331 33.6386H118.337V33.6686H118.37ZM131.445 22.581H134.457V17.6532H138.429V22.5509H142.004V25.2252H138.429V33.9392C138.429 34.3297 138.463 34.6302 138.495 34.9307C138.529 35.2011 138.628 35.4415 138.727 35.6218C138.86 35.802 139.059 35.9524 139.29 36.0425C139.555 36.1326 139.885 36.1927 140.35 36.1927C140.614 36.1927 140.912 36.1927 141.176 36.1626C141.442 36.1326 141.74 36.1026 142.004 36.0425V38.8369C141.574 38.8971 141.144 38.927 140.713 38.9571C140.283 39.0172 139.885 39.0172 139.422 39.0172C138.364 39.0172 137.536 38.927 136.906 38.7468C136.278 38.5665 135.782 38.296 135.417 37.9656C135.053 37.605 134.821 37.1843 134.689 36.6735C134.557 36.1626 134.49 35.5316 134.457 34.8706V25.2552H131.445V22.5209V22.581ZM144.785 22.581H148.525V24.8045H148.592C149.154 23.843 149.916 23.1819 150.909 22.7613C151.902 22.3406 152.961 22.1303 154.153 22.1303C155.576 22.1303 156.8 22.3406 157.86 22.8213C158.919 23.272 159.779 23.873 160.474 24.6843C161.17 25.4656 161.7 26.397 162.031 27.4487C162.361 28.5005 162.56 29.6422 162.56 30.8141C162.56 31.9258 162.395 32.9776 162.097 33.9992C161.765 35.0209 161.302 35.9524 160.673 36.7335C160.045 37.5148 159.25 38.1458 158.257 38.6266C157.264 39.1073 156.139 39.3478 154.814 39.3478C154.252 39.3478 153.656 39.2876 153.093 39.1975C152.53 39.1073 151.968 38.9571 151.438 38.7468C150.909 38.5365 150.411 38.266 149.982 37.9355C149.518 37.605 149.154 37.2143 148.856 36.7936H148.79V44.9367H144.818V22.581H144.785ZM158.655 30.754C158.655 30.0329 158.555 29.3117 158.323 28.6206C158.125 27.9295 157.793 27.3285 157.364 26.7877C156.933 26.2468 156.403 25.8262 155.807 25.4956C155.179 25.1651 154.451 25.0148 153.656 25.0148C152 25.0148 150.743 25.5257 149.883 26.5774C149.055 27.629 148.624 29.0413 148.624 30.7841C148.624 31.6254 148.723 32.3766 148.955 33.0677C149.187 33.7588 149.485 34.3598 149.948 34.8706C150.379 35.3814 150.909 35.7721 151.537 36.0725C152.167 36.373 152.862 36.5232 153.69 36.5232C154.616 36.5232 155.344 36.3429 155.974 36.0124C156.602 35.6819 157.098 35.2311 157.529 34.7203C157.926 34.1795 158.224 33.5785 158.389 32.8874C158.555 32.1663 158.655 31.4751 158.655 30.754ZM165.638 16.3611H169.611V19.7565H165.638V16.3611ZM165.638 22.581H169.611V38.8971H165.638V22.581ZM173.153 16.3611H177.125V38.8971H173.153V16.3611ZM189.24 39.3478C187.817 39.3478 186.526 39.1374 185.4 38.6867C184.275 38.236 183.349 37.665 182.554 36.9138C181.792 36.1626 181.196 35.2311 180.799 34.1795C180.402 33.1278 180.17 31.9559 180.17 30.7239C180.17 29.492 180.368 28.3502 180.799 27.2985C181.196 26.2468 181.792 25.3454 182.554 24.5641C183.315 23.813 184.275 23.212 185.4 22.7913C186.526 22.3706 187.817 22.1303 189.24 22.1303C190.664 22.1303 191.954 22.3406 193.08 22.7913C194.205 23.212 195.132 23.813 195.927 24.5641C196.687 25.3153 197.283 26.2468 197.68 27.2985C198.078 28.3502 198.31 29.492 198.31 30.7239C198.31 31.986 198.111 33.1278 197.68 34.1795C197.251 35.2311 196.687 36.1326 195.927 36.9138C195.166 37.665 194.205 38.266 193.08 38.6867C191.954 39.1073 190.697 39.3478 189.24 39.3478ZM189.24 36.4932C190.101 36.4932 190.896 36.3129 191.524 35.9823C192.187 35.6518 192.683 35.2011 193.113 34.6603C193.543 34.1194 193.841 33.4883 194.04 32.8274C194.238 32.1362 194.338 31.4452 194.338 30.7239C194.338 30.0329 194.238 29.3417 194.04 28.6507C193.841 27.9595 193.543 27.3586 193.113 26.8177C192.683 26.2769 192.153 25.8562 191.524 25.5257C190.862 25.1952 190.101 25.0148 189.24 25.0148C188.38 25.0148 187.585 25.1952 186.956 25.5257C186.294 25.8562 185.798 26.3069 185.367 26.8177C184.937 27.3586 184.638 27.9595 184.44 28.6507C184.242 29.3417 184.143 30.0329 184.143 30.7239C184.143 31.4452 184.242 32.1362 184.44 32.8274C184.638 33.5184 184.937 34.1194 185.367 34.6603C185.798 35.2011 186.328 35.6518 186.956 35.9823C187.619 36.3429 188.38 36.4932 189.24 36.4932ZM199.501 22.581H202.514V17.6532H206.486V22.5509H210.061V25.2252H206.486V33.9392C206.486 34.3297 206.52 34.6302 206.552 34.9307C206.585 35.2011 206.685 35.4415 206.784 35.6218C206.917 35.802 207.115 35.9524 207.346 36.0425C207.612 36.1326 207.942 36.1927 208.406 36.1927C208.671 36.1927 208.969 36.1927 209.233 36.1626C209.499 36.1326 209.796 36.1026 210.061 36.0425V38.8369C209.63 38.8971 209.201 38.927 208.77 38.9571C208.339 39.0172 207.942 39.0172 207.479 39.0172C206.42 39.0172 205.592 38.927 204.963 38.7468C204.335 38.5665 203.838 38.296 203.473 37.9656C203.11 37.605 202.878 37.1843 202.746 36.6735C202.613 36.1626 202.547 35.5316 202.514 34.8706V25.2552H199.501V22.5209V22.581Z" fill="#D9ECFF"/>
<path d="M48.2489 16.4878H30.0762L24.482 0.802734L18.8547 16.4878L0.682068 16.4578L15.3791 26.1632L9.75183 41.8483L24.4489 32.1428L39.146 41.8483L33.5518 26.1632L48.2489 16.4878Z" fill="#00B67A"/>
<path d="M34.81 29.7088L33.5521 26.1631L24.4824 32.1426L34.81 29.7088Z" fill="#005128"/>
</svg>
